<?xml version="1.0" encoding="UTF-8"?>
<svg version="1.1" xmlns="http://www.w3.org/2000/svg" width="64" height="64">
<path d="M0 0 C12.54 0 25.08 0 38 0 C38.495 6.435 38.495 6.435 39 13 C40.794375 13.474375 42.58875 13.94875 44.4375 14.4375 C49.875 15.875 49.875 15.875 51 17 C51.40865112 22.79687949 50.24597105 27.63810062 48.62890625 33.1796875 C48.38712143 34.03305695 48.14533661 34.88642639 47.89622498 35.76565552 C47.38685713 37.55691245 46.87311491 39.34693067 46.35522461 41.13574219 C45.55970254 43.8846666 44.77777995 46.63718494 43.99804688 49.390625 C43.50078246 51.13303599 43.0027625 52.87523158 42.50390625 54.6171875 C42.26845596 55.44314423 42.03300568 56.26910095 41.79042053 57.12008667 C40.11693643 62.88306357 40.11693643 62.88306357 39 64 C34.34819191 63.88415037 29.92900154 63.29860764 25.5 61.875 C18.3945807 60.09864518 11.8913661 62.01210593 5 64 C1.5625 64.125 1.5625 64.125 -1 64 C-3.87732978 56.85789017 -5.9808585 49.50993481 -8.0715332 42.10913086 C-8.68775675 39.9365948 -9.31734096 37.76820649 -9.94726562 35.59960938 C-10.34457731 34.20075555 -10.7410892 32.80167426 -11.13671875 31.40234375 C-11.67365356 29.52276978 -11.67365356 29.52276978 -12.22143555 27.60522461 C-13.00935974 23.95665873 -13.1426339 20.72014334 -13 17 C-9 15.66666667 -5 14.33333333 -1 13 C-0.67 8.71 -0.34 4.42 0 0 Z " fill="#F1F9FE" transform="translate(13,0)"/>
<path d="M0 0 C0.33 13.86 0.66 27.72 1 42 C6.754375 41.855625 12.50875 41.71125 18.4375 41.5625 C21.16471313 41.49784546 21.16471313 41.49784546 23.94702148 41.43188477 C25.38005586 41.39377677 26.81308073 41.35530892 28.24609375 41.31640625 C28.99669067 41.29993042 29.7472876 41.28345459 30.52062988 41.26647949 C34.05692641 41.4816412 34.05692641 41.4816412 37 40 C37.16029688 37.04470496 37.25957328 34.11017543 37.31640625 31.15234375 C37.33718735 30.2659169 37.35796844 29.37949005 37.37937927 28.46620178 C37.444974 25.623383 37.50380552 22.78046883 37.5625 19.9375 C37.6056758 18.01496394 37.64928978 16.09243766 37.69335938 14.16992188 C37.80066543 9.44671332 37.90190451 4.72340847 38 0 C39.98019743 0.47488898 41.95913635 0.95502859 43.9375 1.4375 C45.59072266 1.83775391 45.59072266 1.83775391 47.27734375 2.24609375 C50 3 50 3 51 4 C51.40865112 9.79687949 50.24597105 14.63810062 48.62890625 20.1796875 C48.38712143 21.03305695 48.14533661 21.88642639 47.89622498 22.76565552 C47.38685713 24.55691245 46.87311491 26.34693067 46.35522461 28.13574219 C45.55970254 30.8846666 44.77777995 33.63718494 43.99804688 36.390625 C43.50078246 38.13303599 43.0027625 39.87523158 42.50390625 41.6171875 C42.26845596 42.44314423 42.03300568 43.26910095 41.79042053 44.12008667 C40.11693643 49.88306357 40.11693643 49.88306357 39 51 C34.34819191 50.88415037 29.92900154 50.29860764 25.5 48.875 C18.3945807 47.09864518 11.8913661 49.01210593 5 51 C1.5625 51.125 1.5625 51.125 -1 51 C-3.87732978 43.85789017 -5.9808585 36.50993481 -8.0715332 29.10913086 C-8.68775675 26.9365948 -9.31734096 24.76820649 -9.94726562 22.59960938 C-10.34457731 21.20075555 -10.7410892 19.80167426 -11.13671875 18.40234375 C-11.49467529 17.14929443 -11.85263184 15.89624512 -12.22143555 14.60522461 C-13.00935974 10.95665873 -13.1426339 7.72014334 -13 4 C-1 0 -1 0 0 0 Z " fill="#B1E3F9" transform="translate(13,13)"/>
<path d="M0 0 C0.01981934 1.1960083 0.03963867 2.3920166 0.06005859 3.62426758 C0.13608272 8.05807694 0.22480497 12.49155674 0.31738281 16.92504883 C0.35568577 18.84457904 0.39053633 20.76418135 0.421875 22.68383789 C0.46749702 25.4418313 0.5254958 28.19932777 0.5859375 30.95703125 C0.59748871 31.81649857 0.60903992 32.67596588 0.62094116 33.56147766 C0.64081085 34.36208115 0.66068054 35.16268463 0.68115234 35.98754883 C0.69447601 36.6914827 0.70779968 37.39541656 0.7215271 38.12068176 C0.91244185 40.33097464 0.91244185 40.33097464 3 43 C5.12106795 43.50702517 5.12106795 43.50702517 7.5703125 43.51171875 C8.46621094 43.54716797 9.36210937 43.58261719 10.28515625 43.61914062 C11.22230469 43.64169922 12.15945312 43.66425781 13.125 43.6875 C14.06988281 43.72166016 15.01476562 43.75582031 15.98828125 43.79101562 C18.32540253 43.87364112 20.66214191 43.94273988 23 44 C22 46 22 46 19.05078125 47.0703125 C17.20033203 47.59238281 17.20033203 47.59238281 15.3125 48.125 C14.09175781 48.47820313 12.87101562 48.83140625 11.61328125 49.1953125 C8.2610498 49.9418635 5.41640681 50.1574381 2 50 C-0.87732978 42.85789017 -2.9808585 35.50993481 -5.0715332 28.10913086 C-5.68775675 25.9365948 -6.31734096 23.76820649 -6.94726562 21.59960938 C-7.34457731 20.20075555 -7.7410892 18.80167426 -8.13671875 17.40234375 C-8.49467529 16.14929443 -8.85263184 14.89624512 -9.22143555 13.60522461 C-10.00935974 9.95665873 -10.1426339 6.72014334 -10 3 C-8.52144705 2.49818809 -7.04213942 1.99859924 -5.5625 1.5 C-4.73878906 1.2215625 -3.91507812 0.943125 -3.06640625 0.65625 C-1 0 -1 0 0 0 Z " fill="#D2EFFB" transform="translate(10,14)"/>
<path d="M0 0 C1.010625 0.0825 2.02125 0.165 3.0625 0.25 C5.0625 3.25 5.0625 3.25 5.0625 6.25 C6.3825 6.91 7.7025 7.57 9.0625 8.25 C9.1875 10.625 9.1875 10.625 9.0625 13.25 C7.0625 15.25 7.0625 15.25 3.9375 15.375 C2.98875 15.33375 2.04 15.2925 1.0625 15.25 C1.0625 16.24 1.0625 17.23 1.0625 18.25 C2.0525 18.25 3.0425 18.25 4.0625 18.25 C4.0625 18.91 4.0625 19.57 4.0625 20.25 C1.4225 20.25 -1.2175 20.25 -3.9375 20.25 C-3.9375 19.59 -3.9375 18.93 -3.9375 18.25 C-2.9475 18.25 -1.9575 18.25 -0.9375 18.25 C-0.9375 17.26 -0.9375 16.27 -0.9375 15.25 C-1.88625 15.29125 -2.835 15.3325 -3.8125 15.375 C-6.9375 15.25 -6.9375 15.25 -8.9375 13.25 C-8.5625 10.125 -8.5625 10.125 -7.9375 7.25 C-6.9475 6.92 -5.9575 6.59 -4.9375 6.25 C-4.793125 5.445625 -4.64875 4.64125 -4.5 3.8125 C-3.73284638 0.31768905 -3.73284638 0.31768905 0 0 Z " fill="#375DA1" transform="translate(31.9375,17.75)"/>
<path d="M0 0 C0.33 13.86 0.66 27.72 1 42 C10.9 42 20.8 42 31 42 C27.44697672 45.55302328 22.32649956 45.88380807 17.43847656 46.12792969 C14.82569173 46.11708007 12.23390485 46.01497105 9.625 45.875 C8.29275391 45.84019531 8.29275391 45.84019531 6.93359375 45.8046875 C6.08152344 45.7634375 5.22945312 45.7221875 4.3515625 45.6796875 C3.58666504 45.64601074 2.82176758 45.61233398 2.03369141 45.57763672 C0 45 0 45 -1.75366211 43.52880859 C-3.64696947 39.68730465 -3.3695298 36.08355295 -3.29296875 31.859375 C-3.28872391 30.97719299 -3.28447906 30.09501099 -3.28010559 29.18609619 C-3.26333838 26.37375117 -3.22568998 23.56212774 -3.1875 20.75 C-3.17245062 18.8411562 -3.15876266 16.93230114 -3.14648438 15.0234375 C-3.11344127 10.34868111 -3.06167255 5.67446282 -3 1 C-1 0 -1 0 0 0 Z " fill="#B2E4F9" transform="translate(13,13)"/>
<path d="M0 0 C0.99 0.33 1.98 0.66 3 1 C3.09892174 6.6233202 3.17149342 12.24613333 3.21972656 17.87011719 C3.23983452 19.78296735 3.26712507 21.69575611 3.30175781 23.60839844 C3.35031249 26.35887811 3.37297658 29.10854477 3.390625 31.859375 C3.41127014 32.71368103 3.43191528 33.56798706 3.45318604 34.44818115 C3.45542799 40.38860924 3.45542799 40.38860924 1.13500977 43.50366211 C-3.74577269 46.92439575 -10.27063735 48.53276609 -16.1875 47.6875 C-17.115625 47.460625 -18.04375 47.23375 -19 47 C-15.63753639 44.75835759 -12.7681514 43.98873082 -8.875 42.9375 C-4.62050202 42.09574308 -4.62050202 42.09574308 -1 40 C-0.83970312 37.04470496 -0.74042672 34.11017543 -0.68359375 31.15234375 C-0.66281265 30.2659169 -0.64203156 29.37949005 -0.62062073 28.46620178 C-0.555026 25.623383 -0.49619448 22.78046883 -0.4375 19.9375 C-0.3943242 18.01496394 -0.35071022 16.09243766 -0.30664062 14.16992188 C-0.19933457 9.44671332 -0.09809549 4.72340847 0 0 Z " fill="#91D8F9" transform="translate(51,13)"/>
<path d="M0 0 C1.010625 0.0825 2.02125 0.165 3.0625 0.25 C5.0625 3.25 5.0625 3.25 5.0625 5.1875 C3.27489188 8.87444175 -0.11408661 10.60086483 -3.890625 11.9453125 C-5.56007864 12.42714668 -7.24788378 12.84449211 -8.9375 13.25 C-8.6075 11.27 -8.2775 9.29 -7.9375 7.25 C-6.9475 6.92 -5.9575 6.59 -4.9375 6.25 C-4.793125 5.445625 -4.64875 4.64125 -4.5 3.8125 C-3.73284638 0.31768905 -3.73284638 0.31768905 0 0 Z " fill="#446DC2" transform="translate(31.9375,17.75)"/>
<path d="M0 0 C2.64 0 5.28 0 8 0 C7.01 2.97 6.02 5.94 5 9 C4.01 9 3.02 9 2 9 C1.34 6.03 0.68 3.06 0 0 Z " fill="#466EC4" transform="translate(40,42)"/>
<path d="M0 0 C2.7972908 2.06756277 3.02692273 3.14440371 3.6875 6.6875 C3.790625 7.780625 3.89375 8.87375 4 10 C3.236875 9.814375 2.47375 9.62875 1.6875 9.4375 C-1.08967375 8.77180827 -1.08967375 8.77180827 -4 10 C-3.52449439 8.51965236 -3.04448784 7.04074979 -2.5625 5.5625 C-2.29566406 4.73878906 -2.02882813 3.91507812 -1.75390625 3.06640625 C-1 1 -1 1 0 0 Z " fill="#587DCA" transform="translate(20,3)"/>
<path d="M0 0 C2.31 0 4.62 0 7 0 C6.34 1.98 5.68 3.96 5 6 C4.01 6 3.02 6 2 6 C2 5.01 2 4.02 2 3 C1.34 2.67 0.68 2.34 0 2 C0 1.34 0 0.68 0 0 Z " fill="#7595D4" transform="translate(41,42)"/>
</svg>
