<?xml version="1.0" encoding="UTF-8"?>
<svg version="1.1" xmlns="http://www.w3.org/2000/svg" width="64" height="64">
<path d="M0 0 C0.495 0.495 0.495 0.495 1 1 C4.371031 0.95852199 7.73099412 0.87181138 11.09765625 0.69726562 C13.2421875 0.64453125 13.2421875 0.64453125 17 1 C20.23267791 4.1258243 20.60915512 7.29408563 21.16796875 11.64453125 C21.25250809 12.29137375 21.33704742 12.93821625 21.42414856 13.60466003 C21.60044834 14.97649685 21.77070107 16.34912257 21.93530273 17.72241211 C22.18235118 19.76982907 22.45177907 21.81330093 22.72460938 23.85742188 C23.88996065 32.95144894 24.21539996 41.83188446 24 51 C17.27136207 53.49208812 10.48111332 55.08219839 3.47314453 56.55371094 C-0.80034062 57.46163086 -4.86024501 58.58135427 -9 60 C-12.125 60.4375 -12.125 60.4375 -15 60 C-18.07082701 56.69784752 -19.90673141 53.39136435 -21.62109375 49.24609375 C-22.08193359 48.14330078 -22.54277344 47.04050781 -23.01757812 45.90429688 C-23.48615234 44.76025391 -23.95472656 43.61621094 -24.4375 42.4375 C-24.90220703 41.32052734 -25.36691406 40.20355469 -25.84570312 39.05273438 C-26.7765531 36.81324176 -27.69897978 34.5702287 -28.61279297 32.32373047 C-29.54260667 30.09590861 -30.51642919 27.88598141 -31.53173828 25.69580078 C-32.00724121 24.65278809 -32.48274414 23.60977539 -32.97265625 22.53515625 C-33.409729 21.61226807 -33.84680176 20.68937988 -34.29711914 19.73852539 C-35.20846837 16.18777711 -34.48598777 14.29834694 -33 11 C-31.25 9.56640625 -31.25 9.56640625 -29 8.5625 C-28.11957031 8.16933594 -27.23914063 7.77617187 -26.33203125 7.37109375 C-25.23246094 6.91863281 -24.13289063 6.46617188 -23 6 C-22.29020996 5.69852051 -21.58041992 5.39704102 -20.84912109 5.08642578 C-18.46948186 4.07978917 -16.0809312 3.09835766 -13.6875 2.125 C-12.52250977 1.64075562 -12.52250977 1.64075562 -11.33398438 1.14672852 C-4.30867204 -1.61679376 -4.30867204 -1.61679376 0 0 Z M-5 2 C-1 3 -1 3 -1 3 Z M-3.375 4.8125 C-4.39110352 4.91763916 -4.39110352 4.91763916 -5.42773438 5.02490234 C-9.67274077 5.55184689 -12.4313864 6.71858433 -16 9 C-15.88930176 9.79994385 -15.77860352 10.5998877 -15.66455078 11.42407227 C-15.24420103 14.46296911 -14.82424741 17.50192044 -14.40444946 20.54089355 C-14.12639845 22.55238326 -13.84775932 24.56379094 -13.5690918 26.57519531 C-12.02150099 37.76230802 -12.02150099 37.76230802 -11.32421875 43.23046875 C-11.23446777 43.93163818 -11.1447168 44.63280762 -11.05224609 45.35522461 C-10.82938293 47.11656987 -10.61174263 48.87857383 -10.39453125 50.640625 C-10.24304166 52.95055874 -10.24304166 52.95055874 -9 54 C-2.07581842 54.32806102 4.22587833 53.43153578 11 52.0625 C12.42892578 51.78889648 12.42892578 51.78889648 13.88671875 51.50976562 C18.28696534 50.98575097 18.28696534 50.98575097 22 49 C22.3833802 41.36573342 21.39826452 33.90675742 20.40087891 26.35107422 C20.12390145 24.24163351 19.86028124 22.13080143 19.59765625 20.01953125 C19.4226721 18.66395937 19.24691797 17.30848661 19.0703125 15.953125 C18.91320801 14.73786133 18.75610352 13.52259766 18.59423828 12.27050781 C18.04797083 9.26401696 17.25374509 6.77516574 16 4 C9.48177233 3.75142352 3.09710857 4.06972581 -3.375 4.8125 Z M-26.125 10.5 C-27.03507812 10.9640625 -27.94515625 11.428125 -28.8828125 11.90625 C-29.58148438 12.2671875 -30.28015625 12.628125 -31 13 C-30.48904382 18.63511676 -28.93172036 22.74023426 -26.375 27.75 C-22.79100369 34.99761892 -19.90588118 42.34984886 -17.34716797 50.01855469 C-16.64707866 52.04273518 -15.83275375 54.02668986 -15 56 C-13.515 56.495 -13.515 56.495 -12 57 C-13.27512344 47.13457128 -14.65785519 37.28525393 -16.0625 27.4375 C-16.2368457 26.21256836 -16.41119141 24.98763672 -16.59082031 23.72558594 C-16.75807617 22.55672852 -16.92533203 21.38787109 -17.09765625 20.18359375 C-17.32207397 18.61436157 -17.32207397 18.61436157 -17.55102539 17.01342773 C-17.99962171 14.00253899 -18.49060398 11.00114717 -19 8 C-21.82440059 8 -23.6229276 9.21688595 -26.125 10.5 Z " fill="#000000" transform="translate(37,3)"/>
<path d="M0 0 C1.26950234 3.0006419 0.98068499 4.05184556 -0.1875 7.1875 C-2 10 -2 10 -3.875 11.125 C-7.28766972 10.92425472 -8.69296206 9.43174269 -11 7 C-11.8125 3.75 -11.8125 3.75 -12 1 C-7.58774263 -0.47075246 -4.51718381 -1.36884358 0 0 Z M-9 2 C-8.80528889 3.94999129 -8.80528889 3.94999129 -8 6 C-6.0162233 7.28436734 -6.0162233 7.28436734 -4 8 C-1.7226499 5.18490007 -1.7226499 5.18490007 -2 2 C-2.78375 2.185625 -3.5675 2.37125 -4.375 2.5625 C-7 3 -7 3 -9 2 Z " fill="#000000" transform="translate(46,29)"/>
<path d="M0 0 C1.875 0.25 1.875 0.25 4 1 C6.03603536 4.08156703 6.154702 6.14802637 5.625 9.75 C5.51414062 10.54921875 5.40328125 11.3484375 5.2890625 12.171875 C5.19367187 12.77515625 5.09828125 13.3784375 5 14 C1.15625 12.328125 1.15625 12.328125 -0.25 9.375 C-0.4975 8.59125 -0.745 7.8075 -1 7 C1.475 7.495 1.475 7.495 4 8 C4 7.01 4 6.02 4 5 C2.35 5 0.7 5 -1 5 C-0.67 3.35 -0.34 1.7 0 0 Z " fill="#000000" transform="translate(51,38)"/>
<path d="M0 0 C4.67692308 1.47692308 4.67692308 1.47692308 6.3125 4.125 C6.539375 4.74375 6.76625 5.3625 7 6 C6.01 6 5.02 6 4 6 C3.67 6.99 3.34 7.98 3 9 C2.34 9 1.68 9 1 9 C-0.4783226 6.04335481 -0.06032783 3.25770263 0 0 Z " fill="#000000" transform="translate(9,16)"/>
<path d="M0 0 C0.66 0 1.32 0 2 0 C5 5.75 5 5.75 5 8 C4.01 8 3.02 8 2 8 C2 7.34 2 6.68 2 6 C1.34 6 0.68 6 0 6 C0 6.66 0 7.32 0 8 C-0.66 8 -1.32 8 -2 8 C-1.125 1.125 -1.125 1.125 0 0 Z " fill="#000000" transform="translate(27,10)"/>
<path d="M0 0 C-0.33 1.32 -0.66 2.64 -1 4 C-2.32 4.33 -3.64 4.66 -5 5 C-5.66 3.68 -6.32 2.36 -7 1 C-4 0 -4 0 0 0 Z " fill="#000000" transform="translate(32,19)"/>
<path d="M0 0 C1.98 0.495 1.98 0.495 4 1 C4 2.32 4 3.64 4 5 C2.35 4.67 0.7 4.34 -1 4 C-0.67 2.68 -0.34 1.36 0 0 Z " fill="#000000" transform="translate(14,25)"/>
<path d="M0 0 C0.99 0 1.98 0 3 0 C2.34 2.31 1.68 4.62 1 7 C0.34 7 -0.32 7 -1 7 C-0.67 4.69 -0.34 2.38 0 0 Z " fill="#000000" transform="translate(14,1)"/>
<path d="M0 0 C0.99 0 1.98 0 3 0 C3.33 1.98 3.66 3.96 4 6 C3.34 6 2.68 6 2 6 C1.34 4.02 0.68 2.04 0 0 Z " fill="#000000" transform="translate(8,3)"/>
<path d="M0 0 C1.9375 0.3125 1.9375 0.3125 4 1 C4.33 1.99 4.66 2.98 5 4 C3.0625 3.6875 3.0625 3.6875 1 3 C0.67 2.01 0.34 1.02 0 0 Z " fill="#000000" transform="translate(5,7)"/>
</svg>
